<svg xmlns="http://www.w3.org/2000/svg" width="960" height="600" viewBox="0 0 960 600"><defs><linearGradient id="sky" x2="0" y2="1"><stop stop-color="#dceadd"/><stop offset="1" stop-color="#f4e6d2"/></linearGradient><linearGradient id="land" x2="0" y2="1"><stop stop-color="#517e68"/><stop offset="1" stop-color="#173d35"/></linearGradient><radialGradient id="glow"><stop stop-color="#fff4ce"/><stop offset="1" stop-color="#efbd83"/></radialGradient></defs><rect width="960" height="600" fill="url(#sky)"/><circle cx="730" cy="140" r="90" fill="#e8bd7e"/><path d="M140 475L455 550V230L140 180Z" fill="#fff4d9"/><path d="M455 550L790 460V160L455 230Z" fill="#e2d5b3"/><path d="M130 490L455 575 805 477" fill="none" stroke="#487865" stroke-width="18"/><g stroke="#b8b297" stroke-width="8"><path d="M190 260L400 308M190 315L400 365M190 370L365 412M510 302L733 244M510 359L733 301M510 416L684 373"/></g><path d="M830 470V260M830 355Q730 285 782 239Q851 275 830 355" fill="#698a5c" stroke="#698a5c" stroke-width="8"/></svg>