<svg xmlns="http://www.w3.org/2000/svg" width="960" height="600" viewBox="0 0 960 600"><defs><linearGradient id="sky" x2="0" y2="1"><stop stop-color="#dceadd"/><stop offset="1" stop-color="#f4e6d2"/></linearGradient><linearGradient id="land" x2="0" y2="1"><stop stop-color="#517e68"/><stop offset="1" stop-color="#173d35"/></linearGradient><radialGradient id="glow"><stop stop-color="#fff4ce"/><stop offset="1" stop-color="#efbd83"/></radialGradient></defs><rect width="960" height="600" fill="url(#sky)"/><rect width="960" height="600" fill="#182e3f"/><g stroke="#3a7d86" stroke-width="2" opacity=".6"><path d="M0 0V600M0 0H960"/><path d="M75 0V600M0 55H960"/><path d="M150 0V600M0 110H960"/><path d="M225 0V600M0 165H960"/><path d="M300 0V600M0 220H960"/><path d="M375 0V600M0 275H960"/><path d="M450 0V600M0 330H960"/><path d="M525 0V600M0 385H960"/><path d="M600 0V600M0 440H960"/><path d="M675 0V600M0 495H960"/><path d="M750 0V600M0 550H960"/><path d="M825 0V600M0 605H960"/><path d="M900 0V600M0 660H960"/><path d="M975 0V600M0 715H960"/><path d="M1050 0V600M0 770H960"/><path d="M1125 0V600M0 825H960"/></g><circle cx="510" cy="280" r="170" fill="#31576a"/><circle cx="510" cy="280" r="123" fill="#72a7a2"/><circle cx="510" cy="280" r="70" fill="#d0dfbf"/><g stroke="#aad7c7" stroke-width="3" fill="none"><ellipse cx="510" cy="280" rx="290" ry="100" transform="rotate(-28 510 280)"/><ellipse cx="510" cy="280" rx="230" ry="200" transform="rotate(40 510 280)"/></g><circle cx="250" cy="420" r="22" fill="#f1c586"/><circle cx="720" cy="180" r="12" fill="#e9ddbd"/></svg>